# xmcd
#
# Track frame offsets:
#	150
#	14715
#	30618
#	53468
#	69935
#	83969
#	98175
#	113619
#	139828
#	155690
#	171152
#	185100
#
# Disc length: 2710 seconds
#
# Revision: 1
# Processed by: cddbd v1.5.2PL0 Copyright (c) Steve Scherf et al.
# Submitted via: audiograbber 1.83.01
#
DISCID=9d0a940c
DTITLE=The Nelson Brothers - Places in the Heart
DYEAR=2009
DGENRE=R&B
TTITLE0=New Me
TTITLE1=Shake the Monkey
TTITLE2=Deeper Shade of Blue
TTITLE3=Golden Age of Song
TTITLE4=Places in the Heart
TTITLE5=A Fool Like Me
TTITLE6=Rainbows for Your Hair
TTITLE7=Song of Frankenstein
TTITLE8=Afraid
TTITLE9=Walking My Baby Back Home
TTITLE10=Love Calls Your Name
TTITLE11=Sail On
EXTD=
EXTT0=
EXTT1=
EXTT2=
EXTT3=
EXTT4=
EXTT5=
EXTT6=
EXTT7=
EXTT8=
EXTT9=
EXTT10=
EXTT11=
PLAYORDER=
